<?xml version="1.0" standalone="no"?>
<!DOCTYPE svg PUBLIC "-//W3C//DTD SVG 20010904//EN"
 "http://www.w3.org/TR/2001/REC-SVG-20010904/DTD/svg10.dtd">
<svg version="1.0" xmlns="http://www.w3.org/2000/svg"
 width="512.000000pt" height="512.000000pt" viewBox="0 0 512.000000 512.000000"
 preserveAspectRatio="xMidYMid meet">

<g transform="translate(0.000000,512.000000) scale(0.100000,-0.100000)"
fill="#000000" stroke="none">
<path d="M1705 4980 l-140 -140 -497 0 -498 0 0 -285 0 -285 1990 0 1990 0 0
285 0 285 -498 0 -497 0 -140 140 -140 140 -715 0 -715 0 -140 -140z"/>
<path d="M850 2273 c0 -1061 4 -1734 10 -1776 33 -226 178 -398 400 -473 52
-18 112 -19 1300 -19 1188 0 1248 1 1300 19 222 75 367 247 400 473 6 42 10
715 10 1776 l0 1707 -1710 0 -1710 0 0 -1707z m1412 420 l298 -298 300 300
300 300 202 -203 203 -202 -300 -300 -300 -300 300 -300 300 -300 -203 -202
-202 -203 -300 300 -300 300 -300 -300 -300 -300 -202 203 -203 202 300 300
300 300 -300 300 -300 300 200 200 c110 110 202 200 205 200 3 0 139 -134 302
-297z"/>
</g>
</svg>
